HIERARCHY
ROOT pelvis
{
  OFFSET 0 100 0
  CHANNELS 6 Xposition Yposition Zposition Zrotation Xrotation Yrotation
  JOINT pelvis_right_femur
  {
    OFFSET -10.78128 -3.44521 -0.5502486
    CHANNELS 3 Zrotation Xrotation Yrotation
    JOINT right_femur_tibia
    {
      OFFSET -0.8047443 -44.0398 -0.1307829
      CHANNELS 3 Zrotation Xrotation Yrotation
      JOINT right_tibia_foot
      {
        OFFSET 3.006224 -47.83518 -5
        CHANNELS 3 Zrotation Xrotation Yrotation
        End Site
        {
          OFFSET 0 -5 15
        }
      }
    }
  }
  JOINT pelvis_left_femur
  {
    OFFSET 10.78128 -3.44521 -0.5502486
    CHANNELS 3 Zrotation Xrotation Yrotation
    JOINT left_femur_tibia
    {
      OFFSET 0.8047443 -44.0398 -0.1307829
      CHANNELS 3 Zrotation Xrotation Yrotation
      JOINT left_tibia_foot
      {
        OFFSET -4.370144 -48.10324 -4.275266
        CHANNELS 3 Zrotation Xrotation Yrotation
        End Site
        {
          OFFSET 0 -5 15
        }
      }
    }
  }
  JOINT pelvis_spine1
  {
    OFFSET 0 6.468898 -3.129235
    CHANNELS 3 Zrotation Xrotation Yrotation
    JOINT spine1
    {
      OFFSET 0 23.15396 4.99043
      CHANNELS 3 Zrotation Xrotation Yrotation
      JOINT spine2
      {
        OFFSET 0 20.79997 -5.064912
        CHANNELS 3 Zrotation Xrotation Yrotation
        JOINT neck
        {
          OFFSET 0 14.38658 9.616178
          CHANNELS 3 Zrotation Xrotation Yrotation
          End Site
          {
            OFFSET 0 20 0
          }
        }
      }
      JOINT right_manubrium
      {
        OFFSET -5.722621 16.35077 3.967754
        CHANNELS 3 Zrotation Xrotation Yrotation
        JOINT right_clavicle
        {
          OFFSET -13.16364 1.694482 -4.693211
          CHANNELS 3 Zrotation Xrotation Yrotation
          JOINT right_humerus
          {
            OFFSET -28.5034 -0.3100689 -2.792744
            CHANNELS 3 Zrotation Xrotation Yrotation
            JOINT right_radius
            {
              OFFSET -25.15693 0.02248979 -1.271978
              CHANNELS 3 Zrotation Xrotation Yrotation
              End Site
              {
                OFFSET -15 0 0
              }
            }
          }
        }
      }
      JOINT left_manubrium
      {
        OFFSET 5.722621 16.35077 3.967754
        CHANNELS 3 Zrotation Xrotation Yrotation
        JOINT left_clavicle
        {
          OFFSET 13.16364 1.694482 -4.693211
          CHANNELS 3 Zrotation Xrotation Yrotation
          JOINT left_humerus
          {
            OFFSET 29.39168 -1.063119 -2.237045
            CHANNELS 3 Zrotation Xrotation Yrotation
            JOINT left_radius
            {
              OFFSET 24.59957 -0.9528479 0.9047498
              CHANNELS 3 Zrotation Xrotation Yrotation
              End Site
              {
                OFFSET 15 -0 -0
              }
            }
          }
        }
      }
    }
  }
}
MOTION
Frames: 13
Frame Time: 0.0416666666667
-414.6222 108.9305 305.5127 14.0747 -3.166238 79.86027 5.867183 10.28893 -0.9890038 -0 20.04288 -0 -7.403258 3.954338 -0.5682439 3.052667 -7.805753 -0.3744216 -0 17.06835 -0 1.936278 -1.765021 13.8445 2.815732 -5.250787 7.890554 -1.119889 21.58985 -5.740144 1.086242 18.16722 2.786526 1.610689 -15.54768 3.546736 -2.852282 -32.42277 14.17309 93.42775 7.082835 -14.57506 -0 0 28.35121 -33.40274 18.79145 16.51268 3.635725 -27.25788 -12.03028 -90.48586 2.393669 34.01136 0 0 -14.60721 10.06122 13.85716 0.1862435
-407.7338 108.9197 305.6555 14.03284 -3.350279 79.12388 5.867183 10.28893 -0.9890038 -0 20.04288 -0 -7.403258 3.954338 -0.5682439 3.052667 -7.805753 -0.3744216 -0 17.06835 -0 1.936278 -1.765021 13.8445 2.815732 -5.250787 7.890554 -1.119889 21.58985 -5.740144 1.086242 18.16722 2.786526 1.610689 -15.54768 3.546736 -2.852282 -32.42277 14.17309 93.42775 7.082835 -14.57506 -0 0 28.35121 -33.40274 18.79145 16.51268 3.635725 -27.25788 -12.03028 -90.48586 2.393669 34.01136 0 0 -14.60721 10.06122 13.85716 0.1862435
-400.8479 108.9088 305.8895 13.98862 -3.533767 78.38722 5.867183 10.28893 -0.9890038 -0 20.04288 -0 -7.403258 3.954338 -0.5682439 3.052667 -7.805753 -0.3744216 -0 17.06835 -0 1.936278 -1.765021 13.8445 2.815732 -5.250787 7.890554 -1.119889 21.58985 -5.740144 1.086242 18.16722 2.786526 1.610689 -15.54768 3.546736 -2.852282 -32.42277 14.17309 93.42775 7.082835 -14.57506 -0 0 28.35121 -33.40274 18.79145 16.51268 3.635725 -27.25788 -12.03028 -90.48586 2.393669 34.01136 0 0 -14.60721 10.06122 13.85716 0.1862436
-393.9656 108.8979 306.2145 13.94202 -3.716672 77.65027 5.867183 10.28893 -0.9890038 -0 20.04288 -0 -7.403258 3.954338 -0.5682439 3.052667 -7.805753 -0.3744216 -0 17.06835 -0 1.936278 -1.765021 13.8445 2.815732 -5.250787 7.890554 -1.119889 21.58985 -5.740144 1.086242 18.16722 2.786526 1.610689 -15.54768 3.546736 -2.852282 -32.42277 14.17309 93.42775 7.082835 -14.57506 -0 0 28.35121 -33.40274 18.79145 16.51268 3.635725 -27.25788 -12.03028 -90.48586 2.393669 34.01136 0 0 -14.60721 10.06122 13.85716 0.1862436
-387.0883 108.8871 306.6305 13.89305 -3.898964 76.91301 5.867183 10.28893 -0.9890038 -0 20.04288 -0 -7.403258 3.954338 -0.5682439 3.052667 -7.805753 -0.3744216 -0 17.06835 -0 1.936278 -1.765021 13.8445 2.815732 -5.250787 7.890554 -1.119889 21.58985 -5.740144 1.086242 18.16722 2.786526 1.610689 -15.54768 3.546736 -2.852282 -32.42277 14.17309 93.42775 7.082835 -14.57506 -0 0 28.35121 -33.40274 18.79145 16.51268 3.635725 -27.25788 -12.03028 -90.48586 2.393669 34.01136 0 0 -14.60721 10.06122 13.85716 0.1862436
-380.2171 108.8762 307.1374 13.84173 -4.080612 76.17543 5.867183 10.28893 -0.9890038 -0 20.04288 -0 -7.403258 3.954338 -0.5682439 3.052667 -7.805753 -0.3744216 -0 17.06835 -0 1.936278 -1.765021 13.8445 2.815732 -5.250787 7.890554 -1.119889 21.58985 -5.740144 1.086242 18.16722 2.786526 1.610689 -15.54768 3.546736 -2.852282 -32.42277 14.17309 93.42775 7.082835 -14.57506 -0 0 28.35121 -33.40274 18.79145 16.51268 3.635725 -27.25788 -12.03028 -90.48586 2.393669 34.01136 0 0 -14.60721 10.06122 13.85716 0.1862436
-373.3532 108.8654 307.7352 13.78806 -4.261586 75.43752 5.867183 10.28893 -0.9890038 -0 20.04288 -0 -7.403258 3.954338 -0.5682439 3.052667 -7.805753 -0.3744216 -0 17.06835 -0 1.936278 -1.765021 13.8445 2.815732 -5.250787 7.890554 -1.119889 21.58985 -5.740144 1.086242 18.16722 2.786526 1.610689 -15.54768 3.546736 -2.852282 -32.42277 14.17309 93.42775 7.082835 -14.57506 -0 0 28.35121 -33.40274 18.79145 16.51268 3.635725 -27.25788 -12.03028 -90.48586 2.393669 34.01136 0 0 -14.60721 10.06122 13.85716 0.1862436
-366.4977 108.8545 308.4237 13.73204 -4.441855 74.69926 5.867183 10.28893 -0.9890038 -0 20.04288 -0 -7.403258 3.954338 -0.5682439 3.052667 -7.805753 -0.3744216 -0 17.06835 -0 1.936278 -1.765021 13.8445 2.815732 -5.250787 7.890554 -1.119889 21.58985 -5.740144 1.086242 18.16722 2.786526 1.610689 -15.54768 3.546736 -2.852282 -32.42277 14.17309 93.42775 7.082835 -14.57506 -0 0 28.35121 -33.40274 18.79145 16.51268 3.635725 -27.25788 -12.03028 -90.48586 2.393669 34.01136 0 0 -14.60721 10.06122 13.85716 0.1862436
-359.652 108.8436 309.2028 13.67368 -4.62139 73.96064 5.867183 10.28893 -0.9890038 -0 20.04288 -0 -7.403258 3.954338 -0.5682439 3.052667 -7.805753 -0.3744216 -0 17.06835 -0 1.936278 -1.765021 13.8445 2.815732 -5.250787 7.890554 -1.119889 21.58985 -5.740144 1.086242 18.16722 2.786526 1.610689 -15.54768 3.546736 -2.852282 -32.42277 14.17309 93.42775 7.082835 -14.57506 -0 0 28.35121 -33.40274 18.79145 16.51268 3.635725 -27.25788 -12.03028 -90.48586 2.393669 34.01136 0 0 -14.60721 10.06122 13.85716 0.1862436
-352.8172 108.8328 310.0724 13.61299 -4.800159 73.22165 5.867183 10.28893 -0.9890038 -0 20.04288 -0 -7.403258 3.954338 -0.5682439 3.052667 -7.805753 -0.3744216 -0 17.06835 -0 1.936278 -1.765021 13.8445 2.815732 -5.250787 7.890554 -1.119889 21.58985 -5.740144 1.086242 18.16722 2.786526 1.610689 -15.54768 3.546736 -2.852282 -32.42277 14.17309 93.42775 7.082835 -14.57506 -0 0 28.35121 -33.40274 18.79145 16.51268 3.635725 -27.25788 -12.03028 -90.48586 2.393669 34.01136 0 0 -14.60721 10.06122 13.85716 0.1862436
-345.9945 108.8219 311.0323 13.54998 -4.978133 72.48227 5.867183 10.28893 -0.9890038 -0 20.04288 -0 -7.403258 3.954338 -0.5682439 3.052667 -7.805753 -0.3744216 -0 17.06835 -0 1.936278 -1.765021 13.8445 2.815732 -5.250787 7.890554 -1.119889 21.58985 -5.740144 1.086242 18.16722 2.786526 1.610689 -15.54768 3.546736 -2.852282 -32.42277 14.17309 93.42775 7.082835 -14.57506 -0 0 28.35121 -33.40274 18.79145 16.51268 3.635725 -27.25788 -12.03028 -90.48586 2.393669 34.01136 0 0 -14.60721 10.06122 13.85716 0.1862436
-339.1851 108.8111 312.0824 13.48464 -5.155282 71.7425 5.867183 10.28893 -0.9890038 -0 20.04288 -0 -7.403258 3.954338 -0.5682439 3.052667 -7.805753 -0.3744216 -0 17.06835 -0 1.936278 -1.765021 13.8445 2.815732 -5.250787 7.890554 -1.119889 21.58985 -5.740144 1.086242 18.16722 2.786526 1.610689 -15.54768 3.546736 -2.852282 -32.42277 14.17309 93.42775 7.082835 -14.57506 -0 0 28.35121 -33.40274 18.79145 16.51268 3.635725 -27.25788 -12.03028 -90.48586 2.393669 34.01136 0 0 -14.60721 10.06122 13.85716 0.1862436
-332.3902 108.8002 313.2225 13.417 -5.331575 71.00231 5.867183 10.28893 -0.9890038 -0 20.04288 -0 -7.403258 3.954338 -0.5682439 3.052667 -7.805753 -0.3744216 -0 17.06835 -0 1.936278 -1.765021 13.8445 2.815732 -5.250787 7.890554 -1.119889 21.58985 -5.740144 1.086242 18.16722 2.786526 1.610689 -15.54768 3.546736 -2.852282 -32.42277 14.17309 93.42775 7.082835 -14.57506 -0 0 28.35121 -33.40274 18.79145 16.51268 3.635725 -27.25788 -12.03028 -90.48586 2.393669 34.01136 0 0 -14.60721 10.06122 13.85716 0.1862436
